# xmcd CD database file
#
# Track frame offsets:
#	150
#	19367
#	35258
#	62469
#	84798
#	106792
#	128208
#	153621
#	178174
#	203504
#	218857
#	238327
#	266802
#	300396
#
# Disc length: 4268 seconds
#
# Revision: 1
# Processed by: cddbd v1.4PL0 Copyright (c) Steve Scherf et al.
# Submitted via: CDex 1.50beta10
#
DISCID=b810aa0e
DTITLE=Cootie Stark - Raw Sugar
DYEAR=2003
DGENRE=Blues
TTITLE0=High Yellow
TTITLE1=Keep On Walkin'
TTITLE2=I'm So Lonely
TTITLE3=Big Leg Women
TTITLE4=Alberta
TTITLE5=Shuckin Corn
TTITLE6=U-Haul
TTITLE7=Sarah
TTITLE8=Blues Around My Bed
TTITLE9=Lay it on You
TTITLE10=So Sweet
TTITLE11=Set a Date
TTITLE12=Cootie's Testimony
TTITLE13=Baby Tate
EXTD=YEAR: 2003
EXTT0=
EXTT1=
EXTT2=
EXTT3=
EXTT4=
EXTT5=
EXTT6=
EXTT7=
EXTT8=
EXTT9=
EXTT10=
EXTT11=
EXTT12=
EXTT13=
PLAYORDER=
